<svg id="visual" viewBox="0 0 900 600" width="900" height="600" xmlns="http://www.w3.org/2000/svg" xmlns:xlink="http://www.w3.org/1999/xlink" version="1.1"><g><g transform="translate(847 305)"><path d="M99.4 -30.5C113 9.4 97.1 60.6 61.6 86.9C26.2 113.1 -28.9 114.4 -62.6 89.2C-96.3 64 -108.5 12.4 -94.5 -28.2C-80.5 -68.7 -40.3 -98.2 1.3 -98.6C42.9 -99 85.9 -70.4 99.4 -30.5Z" stroke="#001122" fill="none" stroke-width="12"></path></g><g transform="translate(235 152)"><path d="M53.2 -17.3C61.9 9.7 57.2 41 38 55.7C18.8 70.5 -14.9 68.6 -34.6 53C-54.3 37.4 -60.1 8 -52 -18C-43.9 -44.1 -21.9 -66.8 0.1 -66.8C22.2 -66.9 44.4 -44.3 53.2 -17.3Z" stroke="#001122" fill="none" stroke-width="12"></path></g><g transform="translate(559 7)"><path d="M55.6 -16.7C63.1 5 54 33.5 34.7 47.4C15.4 61.3 -14.1 60.7 -32.6 46.8C-51.1 33 -58.4 5.8 -51.2 -15.7C-43.9 -37.1 -21.9 -52.8 1 -53.1C24 -53.5 48.1 -38.5 55.6 -16.7Z" stroke="#001122" fill="none" stroke-width="12"></path></g></g></svg>