<svg id="visual" viewBox="0 0 900 600" width="900" height="600" xmlns="http://www.w3.org/2000/svg" xmlns:xlink="http://www.w3.org/1999/xlink" version="1.1"><g><g transform="translate(898 524)"><path d="M85 -31.4C96.6 7.9 82.9 51.7 52.6 74.1C22.3 96.6 -24.8 97.8 -54 76.2C-83.1 54.5 -94.3 10.1 -82.3 -29.8C-70.3 -69.8 -35.2 -105.3 0.8 -105.6C36.7 -105.8 73.5 -70.8 85 -31.4Z" stroke="#FF0066" fill="none" stroke-width="12"></path></g><g transform="translate(83 372)"><path d="M57 -19.9C64.8 5.7 56 35.3 36.2 49.6C16.4 64 -14.4 63.1 -35.1 48C-55.9 33 -66.6 3.9 -59.1 -21.1C-51.6 -46.2 -25.8 -67.3 -0.6 -67.1C24.5 -66.9 49.1 -45.4 57 -19.9Z" stroke="#FF0066" fill="none" stroke-width="12"></path></g><g transform="translate(66 73)"><path d="M83.2 -27.3C92.4 1.3 73.8 38.6 44 60.1C14.3 81.6 -26.6 87.3 -50.2 69.9C-73.8 52.6 -80.2 12.2 -68.9 -19.2C-57.7 -50.6 -28.8 -73.1 4.1 -74.4C37 -75.8 74 -55.9 83.2 -27.3Z" stroke="#FF0066" fill="none" stroke-width="12"></path></g></g></svg>